# xmcd CD database file
# Copyright (C) 1995 Ti Kan
#
# Track frame offsets:
#	150
#	21850
#	39400
#	62450
#	91400
#	121475
#	140612
#	159775
#	176387
#	180700
#	197337
#	210487
#
# Disc length: 2993 seconds
#
# Revision: 1
# Processed by: cddbd v1.4b41PL1 Copyright (c) Steve Scherf et al.
# Submitted via: xmcd 1.4
#
DISCID=940baf0c
DTITLE=Blue Ruin - Such Sweet Thunder
DYEAR=1900
DGENRE=
TTITLE0=Hey Bo
TTITLE1=What a Helluva Woman
TTITLE2=She's Murder
TTITLE3=Kill Jaw
TTITLE4=Waterhole
TTITLE5=In the Mood
TTITLE6=Same Thing
TTITLE7=Love Me When I'm Low
TTITLE8=Waterhole (reprise)
TTITLE9=Say Die
TTITLE10=That Dirty Stink'n Unclean Love Affair
TTITLE11=Venus
EXTD=Mushroom \n\nBlue Ruin are:\nIan "Quincy" McLean - Vocals\nMulaim Ve
EXTD=la - Guitar\nAdam Learner - Bass\nPhil Calvert - Drums\n\n1985.
EXTT0=
EXTT1=
EXTT2=
EXTT3=
EXTT4=
EXTT5=
EXTT6=
EXTT7=
EXTT8=
EXTT9=
EXTT10=
EXTT11=
PLAYORDER=
